<svg width="17" height="17" viewBox="0 0 17 17" fill="none" xmlns="http://www.w3.org/2000/svg">
<path d="M3.1875 14.875C2.90417 14.875 2.65625 14.7688 2.44375 14.5563C2.23125 14.3438 2.125 14.0958 2.125 13.8125V3.1875C2.125 2.90417 2.23125 2.65625 2.44375 2.44375C2.65625 2.23125 2.90417 2.125 3.1875 2.125H7.79167V3.1875H3.1875V13.8125H13.8125V9.20833H14.875V13.8125C14.875 14.0958 14.7688 14.3438 14.5563 14.5563C14.3438 14.7688 14.0958 14.875 13.8125 14.875H3.1875ZM6.76458 10.9969L6.02083 10.2354L13.0687 3.1875H9.19063V2.125H14.875V7.80938H13.8125V3.94896L6.76458 10.9969Z" fill="#AAAAAA"/>
</svg>
